<svg width="81" height="80" viewBox="0 0 81 80" fill="none" xmlns="http://www.w3.org/2000/svg">
<g clip-path="url(#clip0_1_427)">
<path d="M44.4618 63.4498L41.5917 56.8635L43.3173 56.1115L45.0194 60.0169L48.4025 56.2583L53.4416 56.4352L50.8684 50.3731L52.6011 49.6376L56.3286 58.4206L49.2143 58.1698L44.4618 63.4498Z" fill="white"/>
<path d="M36.3408 63.4559L31.4853 58.2493L24.3837 58.6235L26.874 52.3745L28.6227 53.071L27.2208 56.5896L32.2632 56.3237L35.7018 60.0107L38.5884 52.8663L40.3338 53.5712L36.3408 63.4559Z" fill="white"/>
<path d="M40.3441 54.4649C39.419 54.4649 38.7615 53.7807 38.1818 53.1774C37.9502 52.9364 37.563 52.5336 37.3992 52.4903C37.1987 52.4912 36.7427 52.7355 36.4095 52.9129C35.8241 53.2263 35.219 53.5501 34.5578 53.5501C34.363 53.5501 34.1742 53.5204 33.9968 53.463C33.1234 53.1792 32.7121 52.3294 32.3493 51.5788C32.202 51.2743 31.9554 50.7647 31.81 50.6724C31.8086 50.6724 31.7568 50.655 31.6255 50.655C31.3874 50.655 31.0622 50.7124 30.7484 50.7684C30.3554 50.8381 29.9484 50.9105 29.546 50.9105C29.0307 50.9105 28.6147 50.7901 28.2735 50.543C27.5352 50.0042 27.4067 49.0729 27.2933 48.2508C27.2467 47.912 27.1686 47.3449 27.0561 47.2136C26.9291 47.1058 26.3625 47.0277 26.0246 46.9816C25.2015 46.8687 24.2693 46.7402 23.7319 46.0014C23.1964 45.2658 23.3601 44.3416 23.5055 43.5261C23.5658 43.1868 23.6665 42.6197 23.5982 42.4597C23.5102 42.32 23.0001 42.0734 22.6952 41.9256C21.9446 41.5628 21.0942 41.151 20.8105 40.2767C20.531 39.416 20.9724 38.5915 21.3615 37.864C21.5258 37.5567 21.8011 37.0423 21.7832 36.8677C21.7418 36.7115 21.338 36.3237 21.0971 36.0922C20.4933 35.5124 19.8095 34.855 19.8095 33.9298C19.8095 33.0051 20.4933 32.3482 21.0966 31.7684C21.3375 31.5364 21.7418 31.1487 21.7846 30.984C21.8006 30.8174 21.5258 30.3044 21.3615 29.9976C20.9719 29.2696 20.53 28.4442 20.811 27.5825C21.0938 26.7101 21.9437 26.2983 22.6938 25.935C22.9987 25.7877 23.5093 25.5402 23.6006 25.3943C23.6651 25.2409 23.5644 24.6738 23.5041 24.3345C23.3592 23.5195 23.195 22.5957 23.73 21.8597C24.2684 21.1209 25.2006 20.992 26.0232 20.879C26.3615 20.832 26.9281 20.7538 27.0599 20.6418C27.1677 20.5143 27.2462 19.9477 27.2928 19.6098C27.4062 18.7872 27.5347 17.855 28.2731 17.3171C28.6142 17.0691 29.0307 16.9487 29.547 16.9487C29.9493 16.9487 30.3559 17.0207 30.7488 17.0908C31.0627 17.1468 31.3874 17.2042 31.6255 17.2042C31.7653 17.2042 31.8142 17.184 31.8147 17.184C31.955 17.0955 32.202 16.5854 32.3493 16.2804C32.7121 15.5303 33.1239 14.6804 33.9978 14.3962C34.1747 14.3388 34.3634 14.3091 34.5582 14.3091C35.2194 14.3091 35.8246 14.6334 36.4105 14.9468C36.7437 15.1247 37.1997 15.3689 37.4011 15.3689C37.5634 15.3265 37.9507 14.9237 38.1822 14.6828C38.7625 14.079 39.4199 13.3948 40.3451 13.3948C41.2702 13.3948 41.9272 14.0785 42.5074 14.6818C42.739 14.9232 43.1272 15.327 43.2919 15.3698C43.4909 15.3689 43.9465 15.1247 44.2792 14.9472C44.8651 14.6334 45.4707 14.3096 46.1314 14.3096C46.3272 14.3096 46.5159 14.3392 46.6933 14.3971C47.5667 14.6809 47.9785 15.5308 48.3413 16.2814C48.4886 16.5854 48.7347 17.095 48.8806 17.1868C48.882 17.1868 48.9338 17.2047 49.066 17.2047C49.3041 17.2047 49.6288 17.1472 49.9427 17.0912C50.3357 17.0221 50.7422 16.9496 51.1437 16.9496C51.6604 16.9496 52.0768 17.0701 52.4175 17.3185C53.1559 17.856 53.2844 18.7877 53.3978 19.6103C53.4444 19.9491 53.5225 20.5162 53.6345 20.6475C53.7615 20.7548 54.3277 20.8324 54.6655 20.879C55.4886 20.992 56.4213 21.1204 56.9587 21.8597C57.4947 22.5943 57.3305 23.5185 57.1851 24.3345C57.1248 24.6738 57.0237 25.2409 57.0919 25.4009C57.1804 25.5407 57.69 25.7872 57.9945 25.935C58.7451 26.2978 59.595 26.7096 59.8787 27.584C60.1582 28.4447 59.7173 29.2691 59.3277 29.9967C59.1634 30.3035 58.8886 30.8169 58.906 30.9915C58.9479 31.1496 59.3517 31.5369 59.5926 31.7684C60.1959 32.3482 60.8797 33.0051 60.8797 33.9298C60.8797 34.8555 60.1954 35.5124 59.5917 36.0927C59.3512 36.3242 58.9479 36.711 58.9051 36.8752C58.8886 37.0432 59.1639 37.5576 59.3281 37.8654C59.7173 38.5924 60.1582 39.4169 59.8787 40.2771C59.5945 41.1515 58.7441 41.5628 57.994 41.9261C57.6895 42.0734 57.1794 42.3204 57.0886 42.4654C57.0227 42.6202 57.1239 43.1882 57.1841 43.5275C57.3291 44.3425 57.4928 45.2663 56.9578 46.0023C56.4204 46.7411 55.4877 46.8696 54.6651 46.9825C54.3267 47.0291 53.7601 47.1072 53.6284 47.2192C53.5206 47.3463 53.4425 47.9129 53.3959 48.2512C53.283 49.0734 53.1545 50.0056 52.4166 50.543C52.0754 50.791 51.6594 50.9115 51.1437 50.9115C50.7413 50.9115 50.3347 50.839 49.9413 50.7689C49.6274 50.7129 49.3027 50.6555 49.0641 50.6555C48.9248 50.6555 48.8754 50.6757 48.875 50.6757C48.7352 50.7642 48.4881 51.2738 48.3408 51.5788C47.9775 52.3294 47.5662 53.1792 46.6914 53.4635C46.515 53.5209 46.3262 53.5501 46.1319 53.5501C45.4712 53.5501 44.866 53.2263 44.2801 52.9129C43.9474 52.735 43.4919 52.4912 43.2905 52.4912C43.1262 52.5336 42.7385 52.9369 42.5065 53.1783C41.9258 53.7811 41.2688 54.4649 40.3441 54.4649ZM37.3992 50.6089C37.4999 50.6089 37.5992 50.6169 37.6966 50.632C38.4613 50.7519 39.0335 51.3477 39.5385 51.8734C39.7738 52.1185 40.1639 52.5242 40.3437 52.5802C40.523 52.5242 40.9121 52.1195 41.1474 51.8743C41.6528 51.3487 42.2255 50.7519 42.9917 50.632C43.0886 50.6169 43.1879 50.6089 43.2886 50.6089C43.9615 50.6089 44.602 50.952 45.1662 51.2536C45.4745 51.4192 45.9408 51.6682 46.1295 51.6682C46.242 51.5915 46.4938 51.0705 46.6448 50.759C46.9639 50.1007 47.3248 49.3534 48.0194 48.999C48.3164 48.8475 48.6575 48.7736 49.0627 48.7736C49.467 48.7736 49.875 48.8461 50.2693 48.9162C50.5822 48.9717 50.906 49.0296 51.1422 49.0296C51.2773 49.0296 51.3258 49.0103 51.3263 49.0098C51.4048 48.903 51.483 48.3345 51.53 47.9948C51.6302 47.2663 51.7441 46.4409 52.298 45.8865C52.8533 45.3317 53.6787 45.2183 54.4072 45.1181C54.747 45.071 55.3159 44.9929 55.4472 44.88C55.4886 44.7543 55.3888 44.1924 55.3295 43.8569C55.2011 43.1308 55.0547 42.3082 55.4124 41.607C55.7667 40.9124 56.514 40.551 57.1733 40.232C57.4844 40.0814 58.0053 39.8296 58.0947 39.6795C58.0938 39.5496 57.827 39.0512 57.6674 38.7534C57.3182 38.1007 56.9225 37.3609 57.0458 36.5783C57.1658 35.8131 57.7615 35.2404 58.2872 34.736C58.5394 34.4931 58.9615 34.0875 58.9978 33.9157C58.9611 33.7736 58.5394 33.3689 58.2877 33.1265C57.762 32.6211 57.1662 32.0484 57.0458 31.2828C56.923 30.5007 57.3187 29.7614 57.6674 29.1087C57.8265 28.8108 58.0938 28.3124 58.082 28.1416C58.0053 28.0324 57.4848 27.7802 57.1738 27.6296C56.515 27.3105 55.7681 26.9496 55.4138 26.2555C55.0557 25.5543 55.202 24.7317 55.331 24.0061C55.3907 23.6705 55.4905 23.1091 55.4246 22.9496C55.3168 22.8691 54.7484 22.791 54.4081 22.744C53.6801 22.6437 52.8542 22.5303 52.3004 21.976C51.746 21.4207 51.6321 20.5952 51.5324 19.8677C51.4867 19.5369 51.4114 18.9887 51.3027 18.8385C51.2938 18.8409 51.2425 18.832 51.1432 18.832C50.9074 18.832 50.5982 18.8865 50.2707 18.9444C49.8764 19.0141 49.4688 19.087 49.0651 19.087C48.6594 19.087 48.3178 19.0131 48.0204 18.8616C47.3262 18.5068 46.9648 17.7604 46.6462 17.1016C46.4957 16.7905 46.2439 16.2696 46.0938 16.1807C45.9418 16.1924 45.475 16.4423 45.1667 16.6075C44.5747 16.9242 43.9625 17.2522 43.2895 17.2522C43.1893 17.2522 43.0905 17.2442 42.9935 17.2291C42.2274 17.1082 41.6547 16.5129 41.1498 15.9868C40.9074 15.735 40.5022 15.3129 40.33 15.2767C40.1874 15.3129 39.7818 15.735 39.5394 15.9877C39.035 16.5124 38.4627 17.1082 37.6985 17.2291C36.9413 17.3458 36.1714 16.9543 35.522 16.607C35.2133 16.4414 34.7474 16.192 34.5582 16.192C34.4462 16.2691 34.1945 16.7901 34.0439 17.1007C33.7248 17.76 33.363 18.5068 32.6684 18.8616C32.3714 19.0131 32.0307 19.087 31.6255 19.087C31.2218 19.087 30.8142 19.0145 30.4199 18.9444C30.107 18.8889 29.7832 18.8315 29.547 18.8315C29.411 18.8315 29.3625 18.8508 29.362 18.8512C29.283 18.9581 29.2044 19.5275 29.1573 19.8672C29.0571 20.5957 28.9432 21.4211 28.3893 21.975C27.835 22.5298 27.0091 22.6437 26.2806 22.744C25.9404 22.791 25.371 22.8696 25.2392 22.983C25.1982 23.1082 25.298 23.6701 25.3578 24.0056C25.4867 24.7312 25.6331 25.5534 25.2759 26.2541C24.9206 26.9491 24.1738 27.3105 23.515 27.6301C23.2039 27.7802 22.6839 28.0324 22.5945 28.1825C22.5954 28.3134 22.8622 28.8117 23.0218 29.1096C23.371 29.7618 23.7667 30.5002 23.6444 31.2823C23.5234 32.0484 22.9277 32.6211 22.402 33.1261C22.1498 33.3684 21.7281 33.7736 21.6914 33.9454C21.7281 34.0875 22.1502 34.4931 22.402 34.7355C22.9277 35.2404 23.523 35.8127 23.6439 36.5778C23.7662 37.3614 23.371 38.1002 23.0218 38.7529C22.8622 39.0508 22.5954 39.5491 22.6067 39.7204C22.6839 39.8291 23.2044 40.0814 23.5154 40.232C24.1742 40.551 24.9211 40.912 25.2759 41.6056C25.6345 42.3077 25.4881 43.1298 25.3592 43.8559C25.2994 44.1915 25.1997 44.7529 25.2655 44.9124C25.3728 44.992 25.9418 45.0701 26.2815 45.1171C27.01 45.2174 27.8359 45.3308 28.3902 45.8856C28.9446 46.4404 29.0585 47.2658 29.1592 47.9938C29.2048 48.3247 29.2797 48.8715 29.3884 49.023C29.3978 49.0169 29.45 49.0291 29.547 49.0291C29.7832 49.0291 30.107 48.9717 30.4199 48.9162C30.8142 48.8461 31.2222 48.7736 31.626 48.7736C32.0312 48.7736 32.3724 48.847 32.6698 48.999C33.3644 49.3543 33.7258 50.1011 34.0444 50.7604C34.1945 51.071 34.4462 51.5915 34.5959 51.6804C34.7474 51.6687 35.2138 51.4188 35.522 51.2536C36.114 50.9364 36.7267 50.6089 37.3992 50.6089Z" fill="white"/>
<path d="M40.3451 47.5633C32.8274 47.5633 26.7112 41.4475 26.7112 33.9304C26.7112 26.4137 32.8274 20.2988 40.3451 20.2988C47.8618 20.2988 53.9771 26.4137 53.9771 33.9304C53.9766 41.4475 47.8613 47.5633 40.3451 47.5633ZM40.3451 22.1817C33.8651 22.1817 28.5935 27.4522 28.5935 33.9308C28.5935 40.4104 33.8651 45.6814 40.3451 45.6814C46.8237 45.6814 52.0947 40.4104 52.0947 33.9308C52.0942 27.4522 46.8237 22.1817 40.3451 22.1817Z" fill="white"/>
<path d="M44.9328 40.502L40.3441 38.0893L35.7559 40.502L36.6321 35.3928L32.9201 31.774L38.05 31.0286L40.3441 26.3801L42.6387 31.0286L47.7686 31.774L44.0561 35.3928L44.9328 40.502ZM36.9648 33.0884L38.6547 34.7359L38.2557 37.0611L40.3441 35.9627L42.4326 37.0611L42.0335 34.7359L43.7239 33.0884L41.3888 32.7491L40.3441 30.6328L39.2999 32.7491L36.9648 33.0884Z" fill="white"/>
</g>
<defs>
<clipPath id="clip0_1_427">
<rect width="80" height="80" fill="white" transform="translate(0.25)"/>
</clipPath>
</defs>
</svg>
