<svg width="81" height="80" viewBox="0 0 81 80" fill="none" xmlns="http://www.w3.org/2000/svg">
<g clip-path="url(#clip0_1_404)">
<path d="M59.5842 34.4792H53.4007V41.0271H61.8591" stroke="#F5F5F5" stroke-width="2"/>
<path d="M50.4886 50.3236H49.9583" stroke="#F5F5F5" stroke-width="2"/>
<path d="M49.9583 31.3499H58.7259L62.1452 41.3203V46.8059H62.6525V50.3236H60.1654" stroke="#F5F5F5" stroke-width="2"/>
<path d="M50.018 46.9315V25.9968H20.0362V46.9315" stroke="#F5F5F5" stroke-width="2"/>
<path d="M36.7596 50.3419H30.8786" stroke="#F5F5F5" stroke-width="2"/>
<path d="M21.3101 50.3419H19.1303V46.3062H50.0181V50.3419H46.8778" stroke="#F5F5F5" stroke-width="2"/>
<path d="M49.7094 50.3052H46.2397" stroke="#F5F5F5" stroke-width="2"/>
<path d="M55.7979 54.3853C57.3401 54.3853 58.5903 53.135 58.5903 51.5928C58.5903 50.0505 57.3401 48.8003 55.7979 48.8003C54.2556 48.8003 53.0054 50.0505 53.0054 51.5928C53.0054 53.135 54.2556 54.3853 55.7979 54.3853Z" stroke="#F5F5F5" stroke-width="2"/>
<path d="M41.5917 54.3853C43.1339 54.3853 44.3841 53.135 44.3841 51.5928C44.3841 50.0505 43.1339 48.8003 41.5917 48.8003C40.0494 48.8003 38.7992 50.0505 38.7992 51.5928C38.7992 53.135 40.0494 54.3853 41.5917 54.3853Z" stroke="#F5F5F5" stroke-width="2"/>
<path d="M25.9106 54.3862C27.4534 54.3862 28.704 53.1355 28.704 51.5927C28.704 50.05 27.4534 48.7993 25.9106 48.7993C24.3678 48.7993 23.1172 50.05 23.1172 51.5927C23.1172 53.1355 24.3678 54.3862 25.9106 54.3862Z" stroke="#F5F5F5" stroke-width="2"/>
<path d="M25.9106 54.3862C27.4534 54.3862 28.704 53.1355 28.704 51.5927C28.704 50.05 27.4534 48.7993 25.9106 48.7993C24.3678 48.7993 23.1172 50.05 23.1172 51.5927C23.1172 53.1355 24.3678 54.3862 25.9106 54.3862Z" stroke="#F5F5F5" stroke-width="2"/>
<path d="M63.6572 43.796H60.1183" stroke="#F5F5F5" stroke-width="2"/>
<path d="M24.7873 31.7583H32.3168" stroke="#F5F5F5" stroke-width="2"/>
</g>
<defs>
<clipPath id="clip0_1_404">
<rect width="80" height="80" fill="white" transform="translate(0.75)"/>
</clipPath>
</defs>
</svg>
